<?xml version="1.0" encoding="UTF-8" standalone="no"?>
<svg
   viewBox="0 0 640 640"
   version="1.1"
   id="svg1"
   sodipodi:docname="favicon2.svg"
   inkscape:version="1.4 (86a8ad7, 2024-10-11)"
   xml:space="preserve"
   xmlns:inkscape="http://www.inkscape.org/namespaces/inkscape"
   xmlns:sodipodi="http://sodipodi.sourceforge.net/DTD/sodipodi-0.dtd"
   xmlns="http://www.w3.org/2000/svg"
   xmlns:svg="http://www.w3.org/2000/svg"><defs
     id="defs1"><inkscape:path-effect
       effect="fillet_chamfer"
       id="path-effect5"
       is_visible="true"
       lpeversion="1"
       nodesatellites_param="F,0,0,1,0,112.0655,0,1 @ F,0,1,1,0,112.0655,0,1 @ F,0,1,1,0,112.0655,0,1 @ F,0,1,1,0,112.0655,0,1"
       radius="0"
       unit="px"
       method="auto"
       mode="F"
       chamfer_steps="1"
       flexible="false"
       use_knot_distance="true"
       apply_no_radius="true"
       apply_with_radius="true"
       only_selected="false"
       hide_knots="false" /><inkscape:path-effect
       effect="fillet_chamfer"
       id="path-effect4"
       is_visible="true"
       lpeversion="1"
       nodesatellites_param="F,0,0,1,0,0,0,1 @ F,0,0,1,0,0,0,1 @ F,0,0,1,0,0,0,1 @ F,0,0,1,0,0,0,1"
       radius="0"
       unit="px"
       method="auto"
       mode="F"
       chamfer_steps="1"
       flexible="false"
       use_knot_distance="true"
       apply_no_radius="true"
       apply_with_radius="true"
       only_selected="false"
       hide_knots="false" /></defs><sodipodi:namedview
     id="namedview1"
     pagecolor="#ffffff"
     bordercolor="#000000"
     borderopacity="0.25"
     inkscape:showpageshadow="2"
     inkscape:pageopacity="0.0"
     inkscape:pagecheckerboard="true"
     inkscape:deskcolor="#d1d1d1"
     showgrid="true"
     inkscape:zoom="0.89921875"
     inkscape:cx="122.88445"
     inkscape:cy="98.974804"
     inkscape:window-width="1718"
     inkscape:window-height="1360"
     inkscape:window-x="1913"
     inkscape:window-y="0"
     inkscape:window-maximized="0"
     inkscape:current-layer="layer1"><inkscape:grid
       id="grid1"
       units="px"
       originx="0"
       originy="0"
       spacingx="1"
       spacingy="1"
       empcolor="#0099e5"
       empopacity="0.30196078"
       color="#0099e5"
       opacity="0.14901961"
       empspacing="5"
       enabled="true"
       visible="true" /></sodipodi:namedview><!--!Font Awesome Free 7.1.0 by @fontawesome - https://fontawesome.com License - https://fontawesome.com/license/free Copyright 2025 Fonticons, Inc.--><path
     d="m 426.54472,28.327518 c 0,-12.129226 -7.25247,-23.1330339 -18.5064,-27.75965721 C 396.78439,-4.058746 383.90495,-1.4328461 375.27692,7.0701422 L 305.25265,77.094439 c -11.7541,11.754082 -11.7541,30.760671 0,42.389731 l 70.02427,70.02432 c 8.62803,8.62801 21.50747,11.12886 32.7614,6.50227 11.25393,-4.62663 18.5064,-15.5054 18.5064,-27.63464 V 138.3657 h 30.01043 c 22.13272,0 40.01392,17.88122 40.01392,40.01391 v 268.46824 c -35.38729,15.38034 -60.02083,50.64255 -60.02083,91.65685 0,55.26917 44.76553,100.03471 100.03471,100.03471 55.26917,0 100.03477,-44.76554 100.03477,-100.03471 0,-41.0143 -24.63356,-76.27651 -60.02086,-91.65685 V 178.37961 c 0,-66.27302 -53.76866,-120.041663 -120.04171,-120.041663 H 426.54472 Z M 106.4336,98.351833 c 0,-16.630771 13.37961,-30.010431 30.01043,-30.010431 16.63076,0 30.01039,13.37966 30.01039,30.010431 0,16.630757 -13.37963,30.010417 -30.01039,30.010417 -16.63082,0 -30.01043,-13.37966 -30.01043,-30.010417 z m 70.02431,91.656837 c 35.38729,-15.38037 60.02083,-50.64261 60.02083,-91.656837 0,-55.269189 -44.76553,-100.0347435 -100.03471,-100.0347435 -55.269174,0 -100.034762,44.7655545 -100.034762,100.0347435 0,41.014227 24.633549,76.276467 60.020858,91.656837 v 256.71412 c -35.387309,15.38036 -60.020858,50.64261 -60.020858,91.65683 0,55.2692 44.765588,100.03478 100.034762,100.03478 55.26918,0 100.03471,-44.76558 100.03471,-100.03478 0,-41.01422 -24.63354,-76.27647 -60.02083,-91.65683 z M 106.4336,538.5047 c 0,-16.63078 13.37961,-30.01045 30.01043,-30.01045 16.63076,0 30.01039,13.37967 30.01039,30.01045 0,16.63077 -13.37963,30.01041 -30.01039,30.01041 -16.63082,0 -30.01043,-13.37964 -30.01043,-30.01041 z m 430.14935,-30.01045 c 16.63082,0 30.01043,13.37967 30.01043,30.01045 0,16.63077 -13.37961,30.01041 -30.01043,30.01041 -16.63075,0 -30.01039,-13.37964 -30.01039,-30.01041 0,-16.63078 13.37964,-30.01045 30.01039,-30.01045 z"
     id="path1"
     style="display:none;fill:#222261;fill-opacity:1;stroke-width:1.25043" /><g
     style="display:none;fill:#ae0c05;fill-opacity:1"
     id="g2"
     transform="matrix(0.88593591,0,0,0.88593591,-105.24924,745.24924)"><path
       d="m 256,-120 -56,-56 193,-194 q 23,-23 35,-52 12,-29 12,-61 v -204 l -64,63 -56,-56 160,-160 160,160 -56,56 -64,-63 v 204 q 0,32 12,61 12,29 35,52 l 193,194 -56,56 -224,-224 z"
       id="path1-8"
       style="fill:#ae0c05;fill-opacity:1" /></g><g
     inkscape:groupmode="layer"
     id="layer2"
     inkscape:label="Background"><path
       style="fill:#be1aea;fill-opacity:1;stroke:none;stroke-width:50;stroke-dasharray:none;stroke-opacity:1"
       d="M 9.6070221,518.48257 8.1862011,122.07347 A 111.66455,111.66455 134.89732 0 1 119.85004,10.008688 H 518.48185 A 112.26615,112.26615 44.948751 0 1 630.74783,122.07401 l 0.71112,397.5201 A 111.66526,111.66526 135 0 1 519.59411,631.45895 l -397.5201,-0.71112 A 112.66927,112.66927 44.948568 0 1 9.6070221,518.48257 Z"
       id="path5"
       inkscape:path-effect="#path-effect5"
       inkscape:original-d="M 10.008688,630.54735 7.7845352,10.008688 H 630.54735 l 1.11208,621.650742 z"
       transform="matrix(1.0227098,0,0,1.0240418,-6.4767452,-8.8905515)" /></g><g
     inkscape:groupmode="layer"
     id="layer1"
     inkscape:label="Test"><ellipse
       style="fill:none;fill-opacity:1;stroke:#ffffff;stroke-width:60;stroke-dasharray:none;stroke-opacity:1"
       id="path2"
       cx="476.68817"
       cy="476.3277"
       rx="87.924797"
       ry="86.662254" /><ellipse
       style="fill:none;fill-opacity:1;stroke:#ffffff;stroke-width:60;stroke-dasharray:none;stroke-opacity:1"
       id="path2-5"
       cx="166.03458"
       cy="476.3277"
       rx="87.924797"
       ry="86.662254" /><ellipse
       style="fill:none;fill-opacity:1;stroke:#ffffff;stroke-width:60;stroke-dasharray:none;stroke-opacity:1"
       id="path2-5-1"
       cx="321.36139"
       cy="140.88756"
       rx="87.924797"
       ry="86.662254" /><path
       style="fill:none;fill-opacity:1;stroke:#ffffff;stroke-width:62.8275;stroke-dasharray:none;stroke-opacity:1"
       d="M 452.90655,415.95816 361.62677,216.49721"
       id="path4"
       sodipodi:nodetypes="cc" /><path
       style="fill:none;fill-opacity:1;stroke:#ffffff;stroke-width:62.8275;stroke-dasharray:none;stroke-opacity:1"
       d="M 186.52484,422.57952 278.91671,203.1012"
       id="path4-1"
       sodipodi:nodetypes="cc" /></g></svg>
