<?xml version="1.0" encoding="UTF-8"?>
<svg version="1.1" viewBox="0 0 640 640" xmlns="http://www.w3.org/2000/svg">
 <path transform="matrix(1.0227 0 0 1.024 -6.4767 -8.8906)" d="m9.607 518.48-1.4208-396.41a111.66 111.66 134.9 0 1 111.66-112.06h398.63a112.27 112.27 44.949 0 1 112.27 112.07l0.71112 397.52a111.67 111.67 135 0 1-111.86 111.86l-397.52-0.71112a112.67 112.67 44.949 0 1-112.47-112.27z" fill="#be1aea"/>
 <g fill="none" stroke="#fff">
  <g stroke-width="60">
   <ellipse cx="476.69" cy="476.33" rx="87.925" ry="86.662"/>
   <ellipse cx="166.03" cy="476.33" rx="87.925" ry="86.662"/>
   <ellipse cx="321.36" cy="140.89" rx="87.925" ry="86.662"/>
  </g>
  <path d="m452.91 415.96-91.28-199.46" stroke-width="62.828"/>
  <path d="m186.52 422.58 92.392-219.48" stroke-width="62.828"/>
 </g>
</svg>
